<svg id="Layer_1" data-name="Layer 1" xmlns="http://www.w3.org/2000/svg" viewBox="0 0 42.8 48"><defs><style>.cls-1{fill:#d8e5ea;}.cls-2{fill:#c5d8de;}.cls-3{fill:#34373a;}.cls-4{fill:#f58e90;}.cls-5{fill:#ee2c28;}.cls-6{fill:#fff;}.cls-7{fill:#a7bbc1;}.cls-8{fill:#a4ce4a;}.cls-9{fill:#7bc142;}</style></defs><path class="cls-1" d="M39.12,5.77H34.56V3.46A2.89,2.89,0,0,0,31.67.57H16.34a2.89,2.89,0,0,0-2.9,2.89V5.77H8.88a5.71,5.71,0,0,0-5.71,5.71V41.73a5.71,5.71,0,0,0,5.71,5.7H39.12a5.7,5.7,0,0,0,5.71-5.7V11.48A5.71,5.71,0,0,0,39.12,5.77ZM24,37.88A11.28,11.28,0,1,1,35.28,26.6,11.27,11.27,0,0,1,24,37.88Z" transform="translate(-2.6)"/><path class="cls-2" d="M39.12,11.16H34.56V8.85A2.9,2.9,0,0,0,31.67,6H16.34a2.9,2.9,0,0,0-2.9,2.9v2.31H8.88a5.71,5.71,0,0,0-5.71,5.71V41.73a5.71,5.71,0,0,0,5.71,5.7H39.12a5.7,5.7,0,0,0,5.71-5.7V16.87A5.7,5.7,0,0,0,39.12,11.16ZM35.28,32A11.28,11.28,0,1,1,13.06,29.3a11.47,11.47,0,0,1-.33-2.7,11.28,11.28,0,0,1,22.55,0,11.48,11.48,0,0,1-.34,2.7A11.33,11.33,0,0,1,35.28,32Z" transform="translate(-2.6)"/><path class="cls-3" d="M39.12,48H8.88A6.28,6.28,0,0,1,2.6,41.73V11.48A6.29,6.29,0,0,1,8.88,5.2h4V3.46A3.47,3.47,0,0,1,16.34,0H31.67a3.47,3.47,0,0,1,3.46,3.46V5.2h4a6.29,6.29,0,0,1,6.28,6.28V41.73A6.28,6.28,0,0,1,39.12,48ZM8.88,6.34a5.14,5.14,0,0,0-5.14,5.14V41.73a5.14,5.14,0,0,0,5.14,5.14H39.12a5.14,5.14,0,0,0,5.14-5.14V11.48a5.14,5.14,0,0,0-5.14-5.14H34.56A.56.56,0,0,1,34,5.77V3.46a2.33,2.33,0,0,0-2.32-2.33H16.34A2.33,2.33,0,0,0,14,3.46V5.77a.56.56,0,0,1-.57.57ZM24,38.44A11.84,11.84,0,1,1,35.84,26.6,11.85,11.85,0,0,1,24,38.44Zm0-22.55A10.71,10.71,0,1,0,34.71,26.6,10.73,10.73,0,0,0,24,15.89Z" transform="translate(-2.6)"/><circle class="cls-4" cx="21.4" cy="27.66" r="12.46"/><path class="cls-5" d="M36.46,27.66c0,5.27-5.58,9.54-12.46,9.54s-12.46-4.27-12.46-9.54S17.12,18.12,24,18.12,36.46,22.39,36.46,27.66Z" transform="translate(-2.6)"/><path class="cls-6" d="M11.54,27.66a12.46,12.46,0,0,0,24.92,0Z" transform="translate(-2.6)"/><path class="cls-1" d="M24,37.2c6.88,0,12.46-4.27,12.46-9.54H11.54C11.54,32.93,17.12,37.2,24,37.2Z" transform="translate(-2.6)"/><path class="cls-3" d="M24,40.68a13,13,0,1,1,13-13A13,13,0,0,1,24,40.68Zm0-24.91A11.89,11.89,0,1,0,35.89,27.66,11.9,11.9,0,0,0,24,15.77Z" transform="translate(-2.6)"/><path class="cls-3" d="M36.46,28.23H11.54a.57.57,0,0,1,0-1.14H36.46a.57.57,0,0,1,0,1.14Z" transform="translate(-2.6)"/><circle class="cls-7" cx="21.4" cy="29.09" r="4.12"/><circle class="cls-6" cx="21.4" cy="27.69" r="4.12"/><path class="cls-1" d="M21.09,30.6a4.12,4.12,0,0,1,5.82-5.83" transform="translate(-2.6)"/><path class="cls-3" d="M24,32.37A4.62,4.62,0,0,1,20.69,31a4.68,4.68,0,1,1,8-3.31A4.69,4.69,0,0,1,24,32.37Zm0-8.24a3.49,3.49,0,0,0-2.51,1.05,3.55,3.55,0,1,0,5,0A3.49,3.49,0,0,0,24,24.13Z" transform="translate(-2.6)"/><path class="cls-3" d="M24,44.36a.57.57,0,0,1-.57-.56V40.16a.57.57,0,0,1,1.14,0V43.8A.57.57,0,0,1,24,44.36Z" transform="translate(-2.6)"/><path class="cls-3" d="M40.48,38.79H36.84a.56.56,0,0,1-.56-.56.57.57,0,0,1,.56-.57h3.64a.58.58,0,0,1,.57.57A.57.57,0,0,1,40.48,38.79Z" transform="translate(-2.6)"/><path class="cls-3" d="M40.48,41H36.84a.57.57,0,0,1,0-1.14h3.64a.57.57,0,1,1,0,1.14Z" transform="translate(-2.6)"/><path class="cls-3" d="M40.48,43.22H36.84a.57.57,0,0,1,0-1.13h3.64a.57.57,0,1,1,0,1.13Z" transform="translate(-2.6)"/><path class="cls-3" d="M24,48a.57.57,0,0,1-.57-.57V46.25a.57.57,0,0,1,1.14,0v1.18A.57.57,0,0,1,24,48Z" transform="translate(-2.6)"/><circle class="cls-7" cx="7.34" cy="13.77" r="2.42"/><circle class="cls-8" cx="7.34" cy="12.57" r="2.42"/><path class="cls-9" d="M8.23,14.28a2.42,2.42,0,0,1,3.43-3.42" transform="translate(-2.6)"/><path class="cls-3" d="M9.94,15.56a3,3,0,1,1,2.12-.88A3,3,0,0,1,9.94,15.56Zm0-4.84a1.85,1.85,0,1,0,1.31,3.16,1.85,1.85,0,0,0-1.31-3.16Z" transform="translate(-2.6)"/></svg>